<?xml version="1.0" encoding="utf-8"?>
<!-- Generator: Adobe Illustrator 17.0.0, SVG Export Plug-In . SVG Version: 6.00 Build 0)  -->
<!DOCTYPE svg PUBLIC "-//W3C//DTD SVG 1.1//EN" "http://www.w3.org/Graphics/SVG/1.1/DTD/svg11.dtd">
<svg version="1.1" id="Layer_1" xmlns="http://www.w3.org/2000/svg" xmlns:xlink="http://www.w3.org/1999/xlink" x="0px" y="0px"
	 width="906.667px" height="205.49px" viewBox="0 0 906.667 205.49" enable-background="new 0 0 906.667 205.49"
	 xml:space="preserve">
<g>
	<path d="M19.603,57.648l55.2-54.486h12.769L33.165,58.52l58.531,60.117H77.182L19.444,58.441v60.196H8.975V3.162h10.627V57.648z"/>
	<path d="M189.643,3.162h9.993l-0.396,72.013c-0.053,7.086-1.019,13.431-2.895,19.035c-1.877,5.605-4.693,10.349-8.447,14.236
		c-3.755,3.887-8.446,6.86-14.077,8.923c-5.631,2.062-12.202,3.093-19.708,3.093c-7.245,0-13.51-0.926-18.796-2.776
		c-5.288-1.85-9.716-4.546-13.285-8.089c-3.569-3.542-6.332-7.852-8.288-12.928c-1.957-5.076-3.172-10.865-3.648-17.369
		c-0.053-0.264-0.079-0.488-0.079-0.674c0-0.185,0-0.409,0-0.674v-1.507l0.476-73.282h9.914l-0.238,72.41
		c0,5.605,0.674,10.615,2.022,15.029c1.348,4.416,3.437,8.169,6.266,11.262c2.828,3.093,6.437,5.459,10.826,7.098
		c4.388,1.64,9.597,2.459,15.624,2.459c5.604,0,10.548-0.661,14.831-1.983c4.283-1.32,7.852-3.383,10.707-6.186
		c2.855-2.802,5.009-6.424,6.464-10.865c1.454-4.441,2.207-9.781,2.26-16.021L189.643,3.162z"/>
	<path d="M305.356,118.637l-12.055-32.993c-1.428-3.859-2.855-7.071-4.283-9.636c-1.428-2.564-3.121-4.612-5.076-6.146
		c-1.957-1.533-4.283-2.617-6.979-3.252c-2.697-0.634-6.027-0.952-9.993-0.952h-23.634v52.979h-10.31V3.162h27.124
		c3.119,0,6.516,0.053,10.191,0.159c3.674,0.106,7.362,0.45,11.064,1.031c3.7,0.583,7.269,1.467,10.707,2.657
		c3.437,1.189,6.49,2.882,9.161,5.076c2.669,2.195,4.811,4.971,6.424,8.328c1.612,3.358,2.419,7.469,2.419,12.333
		c0,3.86-0.662,7.39-1.983,10.588c-1.322,3.2-3.199,6.001-5.631,8.407c-2.433,2.407-5.341,4.416-8.724,6.028
		c-3.384,1.613-7.138,2.763-11.262,3.45c-0.106,0.317-0.159,0.529-0.159,0.635c0,0.053,0.012,0.093,0.04,0.119
		c0.026,0.027,0.04,0.067,0.04,0.119c3.807,0.741,6.887,2.022,9.24,3.847c2.352,1.824,4.454,4.322,6.305,7.495
		c1.85,3.172,3.661,7.112,5.433,11.817c1.771,4.707,3.978,10.31,6.623,16.813l6.345,16.576H305.356z M243.653,56.537h23.238
		c3.859,0,7.706-0.33,11.54-0.991c3.833-0.661,7.283-1.836,10.35-3.529c3.066-1.691,5.564-3.978,7.495-6.86
		c1.929-2.881,2.895-6.543,2.895-10.984s-0.793-8.076-2.379-10.905c-1.586-2.828-3.795-5.062-6.623-6.702
		c-2.829-1.638-6.174-2.776-10.033-3.41c-3.86-0.634-8.063-0.952-12.61-0.952h-23.872V56.537z"/>
	<path d="M362.062,118.637V12.203h-37.831V3.162h86.289v9.042h-37.751v106.434H362.062z"/>
</g>
</svg>
