<?xml version="1.0" encoding="utf-8"?>
<!-- Generator: Adobe Illustrator 17.0.0, SVG Export Plug-In . SVG Version: 6.00 Build 0)  -->
<!DOCTYPE svg PUBLIC "-//W3C//DTD SVG 1.1//EN" "http://www.w3.org/Graphics/SVG/1.1/DTD/svg11.dtd">
<svg version="1.1" id="Layer_1" xmlns="http://www.w3.org/2000/svg" xmlns:xlink="http://www.w3.org/1999/xlink" x="0px" y="0px"
	 width="906.667px" height="205.49px" viewBox="0 0 906.667 205.49" enable-background="new 0 0 906.667 205.49"
	 xml:space="preserve">
<g>
	<path fill="#E62091" d="M7.309,176.725c2.59,2.908,5.195,5.194,7.812,6.86c2.617,1.665,5.234,2.922,7.852,3.767
		c2.618,0.847,5.221,1.389,7.812,1.626c2.59,0.238,5.155,0.357,7.693,0.357c4.546,0,8.724-0.449,12.531-1.349
		c3.807-0.898,7.071-2.221,9.795-3.966c2.723-1.744,4.85-3.912,6.384-6.503c1.533-2.59,2.3-5.604,2.3-9.041
		c0-3.913-0.939-7.23-2.815-9.954c-1.877-2.723-4.362-5.088-7.455-7.098c-3.093-2.009-6.596-3.78-10.508-5.314
		c-3.914-1.532-7.931-3.053-12.055-4.56s-8.143-3.146-12.055-4.918c-3.914-1.771-7.416-3.886-10.508-6.345
		c-3.093-2.458-5.579-5.393-7.455-8.803c-1.877-3.41-2.816-7.547-2.816-12.412c0-4.969,1.163-9.332,3.49-13.086
		c2.326-3.753,5.419-6.9,9.279-9.438c3.859-2.538,8.235-4.441,13.126-5.71c4.89-1.269,9.926-1.903,15.108-1.903
		c2.538,0,5.155,0.172,7.852,0.516c2.697,0.344,5.366,0.912,8.01,1.705c2.643,0.793,5.195,1.864,7.653,3.212
		s4.719,3.027,6.781,5.036l-3.886,7.376c-3.648-3.172-7.812-5.419-12.491-6.741c-4.679-1.321-9.373-1.983-14.078-1.983
		c-3.596,0-7.165,0.371-10.707,1.11c-3.542,0.741-6.729,1.931-9.557,3.569c-2.829,1.64-5.129,3.728-6.9,6.266
		c-1.772,2.538-2.657,5.579-2.657,9.12c0,3.755,0.938,6.953,2.815,9.597c1.876,2.645,4.362,4.984,7.455,7.02
		s6.609,3.859,10.548,5.472c3.938,1.613,7.97,3.239,12.095,4.878c4.124,1.64,8.155,3.384,12.095,5.234
		c3.938,1.852,7.455,4.059,10.548,6.622c3.093,2.565,5.578,5.565,7.455,9.002c1.876,3.438,2.816,7.562,2.816,12.372
		c0,3.701-0.595,7.019-1.785,9.953s-2.843,5.513-4.957,7.733c-2.115,2.221-4.574,4.111-7.375,5.67
		c-2.803,1.561-5.843,2.843-9.121,3.847c-3.279,1.005-6.676,1.731-10.191,2.182c-3.517,0.448-7.019,0.674-10.509,0.674
		c-6.82,0-13.153-1.27-18.995-3.807c-5.843-2.538-10.746-6.371-14.712-11.5L7.309,176.725z"/>
	<path fill="#E62091" d="M131.587,196.552V90.118H93.757v-9.042h86.289v9.042h-37.751v106.434H131.587z"/>
	<path fill="#E62091" d="M278.786,81.077h9.993l-0.396,72.013c-0.053,7.086-1.019,13.431-2.895,19.034
		c-1.877,5.605-4.693,10.351-8.447,14.236c-3.755,3.887-8.446,6.86-14.077,8.923c-5.631,2.062-12.202,3.093-19.709,3.093
		c-7.245,0-13.51-0.926-18.796-2.776c-5.288-1.85-9.716-4.546-13.285-8.089c-3.569-3.542-6.332-7.852-8.288-12.928
		c-1.957-5.076-3.172-10.865-3.648-17.369c-0.053-0.264-0.079-0.488-0.079-0.674c0-0.185,0-0.409,0-0.674v-1.507l0.476-73.283h9.914
		l-0.238,72.41c0,5.605,0.674,10.615,2.022,15.029c1.348,4.415,3.437,8.169,6.266,11.262c2.828,3.094,6.437,5.46,10.826,7.099
		c4.388,1.64,9.597,2.459,15.624,2.459c5.604,0,10.548-0.661,14.831-1.983c4.283-1.32,7.852-3.383,10.707-6.186
		c2.855-2.802,5.009-6.425,6.464-10.866c1.454-4.44,2.207-9.78,2.26-16.021L278.786,81.077z"/>
	<path fill="#E62091" d="M321.931,196.552V81.077H343.9c3.331,0,6.912,0.04,10.746,0.119c3.833,0.079,7.626,0.371,11.381,0.873
		c3.754,0.503,7.376,1.296,10.866,2.379c3.49,1.084,6.555,2.631,9.2,4.64c2.644,2.01,4.759,4.561,6.345,7.654
		c1.586,3.093,2.379,6.887,2.379,11.38c0,3.648-0.674,7.02-2.022,10.112c-1.348,3.093-3.186,5.843-5.512,8.248
		c-2.327,2.406-5.076,4.429-8.249,6.067c-3.172,1.64-6.583,2.803-10.231,3.489c4.652,0.159,8.922,0.926,12.809,2.301
		s7.204,3.305,9.954,5.789c2.749,2.486,4.89,5.486,6.424,9.002c1.533,3.517,2.3,7.494,2.3,11.936c0,4.178-0.793,8.169-2.379,11.977
		c-1.586,3.807-3.939,7.151-7.059,10.032c-3.121,2.883-7.019,5.183-11.698,6.9c-4.679,1.719-10.139,2.577-16.377,2.577H321.931z
		 M332.241,141.114v46.396h25.062c10.257,0,18.201-1.824,23.833-5.473c5.631-3.648,8.446-9.331,8.446-17.052
		c0-4.547-0.82-8.354-2.458-11.421c-1.64-3.065-4.032-5.524-7.178-7.375c-3.146-1.851-7.032-3.159-11.658-3.926
		c-4.627-0.767-9.954-1.15-15.981-1.15H332.241z M332.4,132.152h17.686c4.176,0,8.3-0.317,12.372-0.952
		c4.071-0.634,7.719-1.771,10.945-3.41c3.225-1.638,5.816-3.858,7.772-6.662c1.956-2.802,2.935-6.345,2.935-10.627
		c0-4.283-0.86-7.759-2.578-10.43c-1.719-2.669-4.059-4.745-7.019-6.226c-2.961-1.479-6.451-2.471-10.469-2.974
		c-4.019-0.502-8.355-0.753-13.007-0.753H332.4V132.152z"/>
	<path fill="#E62091" d="M429.157,196.552V81.077h21.969c3.331,0,6.912,0.04,10.746,0.119c3.833,0.079,7.626,0.371,11.381,0.873
		c3.754,0.503,7.376,1.296,10.865,2.379c3.49,1.084,6.556,2.631,9.2,4.64c2.644,2.01,4.759,4.561,6.345,7.654
		c1.586,3.093,2.38,6.887,2.38,11.38c0,3.648-0.675,7.02-2.022,10.112c-1.349,3.093-3.187,5.843-5.513,8.248
		c-2.327,2.406-5.075,4.429-8.248,6.067c-3.172,1.64-6.582,2.803-10.23,3.489c4.651,0.159,8.922,0.926,12.809,2.301
		c3.886,1.375,7.203,3.305,9.953,5.789c2.748,2.486,4.89,5.486,6.424,9.002c1.533,3.517,2.3,7.494,2.3,11.936
		c0,4.178-0.793,8.169-2.379,11.977c-1.586,3.807-3.939,7.151-7.059,10.032c-3.12,2.883-7.019,5.183-11.698,6.9
		c-4.68,1.719-10.14,2.577-16.377,2.577H429.157z M439.468,141.114v46.396h25.062c10.257,0,18.201-1.824,23.832-5.473
		s8.447-9.331,8.447-17.052c0-4.547-0.82-8.354-2.459-11.421c-1.64-3.065-4.032-5.524-7.178-7.375
		c-3.146-1.851-7.032-3.159-11.658-3.926c-4.627-0.767-9.953-1.15-15.981-1.15H439.468z M439.626,132.152h17.686
		c4.177,0,8.301-0.317,12.373-0.952c4.07-0.634,7.719-1.771,10.944-3.41c3.225-1.638,5.815-3.858,7.772-6.662
		c1.955-2.802,2.935-6.345,2.935-10.627c0-4.283-0.86-7.759-2.578-10.43c-1.719-2.669-4.058-4.745-7.019-6.226
		c-2.962-1.479-6.451-2.471-10.469-2.974c-4.019-0.502-8.354-0.753-13.007-0.753h-18.638V132.152z"/>
	<path fill="#E62091" d="M547.963,196.552h-10.707V81.077h10.707V196.552z"/>
	<path fill="#E62091" d="M592.694,91.704v104.848h-10.39V81.077h14.038l59.958,89.858l10.628,17.527v-26.965v-80.42h9.676v115.475
		h-14.276l-60.196-89.778L592.694,91.704z"/>
	<path fill="#E62091" d="M759.879,147.063v-9.041h39.575l-0.317,52.582c-5.922,2.855-12.188,4.865-18.796,6.027
		c-6.61,1.162-13.324,1.745-20.145,1.745c-9.412,0-17.7-1.376-24.864-4.124c-7.165-2.749-13.165-6.635-18.003-11.659
		c-4.838-5.022-8.486-11.036-10.945-18.043c-2.458-7.005-3.688-14.791-3.688-23.356s1.295-16.615,3.886-24.149
		s6.332-14.13,11.223-19.788c4.89-5.657,10.878-10.124,17.964-13.403c7.084-3.278,15.148-4.917,24.189-4.917
		c4.282,0,8.394,0.371,12.333,1.11c3.938,0.741,7.534,1.851,10.786,3.331c3.251,1.48,6.066,3.331,8.446,5.552
		c2.379,2.22,4.124,4.812,5.234,7.772l-4.441,5.552c-1.322-2.431-3.081-4.533-5.274-6.305c-2.194-1.771-4.732-3.238-7.613-4.401
		c-2.883-1.163-6.041-2.035-9.478-2.617c-3.438-0.582-7.059-0.873-10.865-0.873c-7.509,0-14.117,1.455-19.828,4.362
		c-5.71,2.909-10.482,6.769-14.315,11.58c-3.834,4.812-6.729,10.35-8.685,16.615c-1.956,6.266-2.934,12.729-2.934,19.392
		c0,7.35,0.991,14.052,2.974,20.105c1.982,6.055,4.983,11.249,9.002,15.584c4.018,4.336,9.041,7.693,15.068,10.072
		s13.086,3.569,21.176,3.569c5.128,0,10.02-0.396,14.673-1.19c4.651-0.793,8.987-2.141,13.007-4.044l0.158-37.038H759.879z"/>
	<path fill="#E62091" d="M829.671,176.725c2.59,2.908,5.195,5.194,7.812,6.86c2.617,1.665,5.234,2.922,7.852,3.767
		c2.617,0.847,5.221,1.389,7.812,1.626c2.59,0.238,5.155,0.357,7.693,0.357c4.547,0,8.724-0.449,12.531-1.349
		c3.807-0.898,7.07-2.221,9.794-3.966c2.723-1.744,4.851-3.912,6.385-6.503c1.533-2.59,2.3-5.604,2.3-9.041
		c0-3.913-0.939-7.23-2.815-9.954c-1.877-2.723-4.362-5.088-7.455-7.098c-3.093-2.009-6.597-3.78-10.509-5.314
		c-3.913-1.532-7.931-3.053-12.055-4.56s-8.143-3.146-12.055-4.918c-3.914-1.771-7.416-3.886-10.509-6.345
		c-3.093-2.458-5.579-5.393-7.455-8.803c-1.878-3.41-2.815-7.547-2.815-12.412c0-4.969,1.162-9.332,3.489-13.086
		c2.326-3.753,5.419-6.9,9.279-9.438c3.859-2.538,8.234-4.441,13.126-5.71c4.89-1.269,9.926-1.903,15.108-1.903
		c2.538,0,5.155,0.172,7.852,0.516c2.696,0.344,5.366,0.912,8.011,1.705c2.643,0.793,5.194,1.864,7.653,3.212
		c2.458,1.348,4.719,3.027,6.78,5.036l-3.886,7.376c-3.648-3.172-7.812-5.419-12.491-6.741c-4.68-1.321-9.372-1.983-14.077-1.983
		c-3.597,0-7.166,0.371-10.707,1.11c-3.543,0.741-6.729,1.931-9.557,3.569c-2.829,1.64-5.13,3.728-6.9,6.266
		c-1.772,2.538-2.657,5.579-2.657,9.12c0,3.755,0.938,6.953,2.815,9.597c1.877,2.645,4.362,4.984,7.455,7.02
		c3.094,2.035,6.609,3.859,10.549,5.472c3.938,1.613,7.971,3.239,12.095,4.878c4.124,1.64,8.155,3.384,12.095,5.234
		c3.938,1.852,7.455,4.059,10.548,6.622c3.093,2.565,5.578,5.565,7.455,9.002c1.876,3.438,2.815,7.562,2.815,12.372
		c0,3.701-0.595,7.019-1.784,9.953s-2.843,5.513-4.957,7.733c-2.115,2.221-4.574,4.111-7.376,5.67
		c-2.803,1.561-5.843,2.843-9.12,3.847c-3.279,1.005-6.676,1.731-10.191,2.182c-3.517,0.448-7.019,0.674-10.509,0.674
		c-6.82,0-13.152-1.27-18.994-3.807c-5.843-2.538-10.747-6.371-14.712-11.5L829.671,176.725z"/>
</g>
</svg>
